<svg xmlns="http://www.w3.org/2000/svg" viewBox="0 0 760 420" role="img" aria-labelledby="title desc">
<title id="title">Volatility Cascade Engine shock sweep</title><desc id="desc">A line rises gradually through a 14 percent shock and more steeply after the first distressed fund appears at 16 percent.</desc>
<rect width="760" height="420" rx="24" fill="#fffdf8"/>
<g stroke="#d8d2c5" stroke-width="1"><path d="M78 60V344H700"/><path d="M78 273H700"/><path d="M78 202H700"/><path d="M78 131H700"/><path d="M78 60H700"/></g>
<g fill="#657184" font-family="system-ui,sans-serif" font-size="14"><text x="35" y="349">0%</text><text x="28" y="278">10%</text><text x="28" y="207">20%</text><text x="28" y="136">30%</text><text x="28" y="65">40%</text><text x="69" y="376">2%</text><text x="348" y="376">16%</text><text x="680" y="376">30%</text></g>
<path d="M78 333 L122 322 L166 311 L210 299 L254 288 L298 276 L342 265 L386 224 L430 191 L474 162 L518 153 L562 145 L606 137 L650 128 L700 100" fill="none" stroke="#17666a" stroke-width="5" stroke-linecap="round" stroke-linejoin="round"/>
<path d="M386 60V344" stroke="#a87422" stroke-width="2" stroke-dasharray="7 7"/><circle cx="386" cy="224" r="8" fill="#a87422"/><g font-family="system-ui,sans-serif"><text x="405" y="88" fill="#815b1b" font-size="15" font-weight="700">First distress classification</text><text x="405" y="109" fill="#657184" font-size="14">16% scenario · model-specific</text><text x="78" y="35" fill="#11243d" font-size="18" font-weight="750">System equity loss across the synthetic shock sweep</text></g>
</svg>